<?xml version="1.0" standalone="no"?><!DOCTYPE svg PUBLIC "-//W3C//DTD SVG 1.1//EN" "http://www.w3.org/Graphics/SVG/1.1/DTD/svg11.dtd"><svg t="1602692495723" class="icon" viewBox="0 0 1024 1024" version="1.1" xmlns="http://www.w3.org/2000/svg" p-id="1193" xmlns:xlink="http://www.w3.org/1999/xlink" width="200" height="200"><defs><style type="text/css"></style></defs><path d="M649.7 896H295.4c-76.6 0-138.8-62.3-138.8-138.8v-98.6c0-15.3 12.4-27.8 27.8-27.8s27.8 12.4 27.8 27.8v98.6c0 45.9 37.4 83.3 83.3 83.3h354.3c15.3 0 27.8 12.4 27.8 27.8S665.1 896 649.7 896zM791.6 561.3c-39.5 0-76.1-17.8-100.5-48.8l-33.2-42.2c-2-2.6-4.7-3-6.1-3-1.4 0-4 0.4-6.1 3l-33.1 42.1c-24.4 31-61 48.8-100.5 48.8s-76.1-17.8-100.5-48.8l-33.1-42.1c-2-2.6-4.7-2.9-6.1-2.9s-4 0.4-6.1 2.9l-33.1 42.1c-24.4 31-61 48.8-100.5 48.8s-76.1-17.8-100.5-48.9l-0.9-1.2c-43.3-55.2-49.5-130.6-15.6-192l76.5-138.7C210 148.1 244 128 281 128h460.4c36.6 0 70.5 19.8 88.4 51.8l77.8 138.8c34.6 61.7 28.7 137.6-15.1 193.2l-0.5 0.7c-24.3 31-61 48.8-100.4 48.8zM651.8 411.8c19.5 0 37.7 8.8 49.7 24.2l33.2 42.2c13.8 17.5 34.5 27.6 56.8 27.6 22.3 0 43-10.1 56.8-27.6l0.5-0.7c29.8-37.9 33.9-89.6 10.3-131.7L781.4 207c-8.1-14.5-23.4-23.4-40-23.4H281c-16.7 0-32.1 9.1-40.2 23.7L164.3 346c-23.1 41.9-18.9 93.3 10.6 131l0.9 1.2c13.8 17.5 34.5 27.6 56.8 27.6 22.3 0 43.1-10.1 56.9-27.6l33.1-42.1c12.1-15.4 30.2-24.2 49.7-24.2 19.5 0 37.7 8.8 49.7 24.2l33.1 42.1c13.8 17.5 34.5 27.6 56.9 27.6 22.3 0 43-10.1 56.8-27.6l33.1-42.1c12.3-15.5 30.4-24.3 49.9-24.3zM797.3 896c-15.3 0-27.8-12.4-27.8-27.8V658.5c0-15.3 12.4-27.8 27.8-27.8 15.3 0 27.8 12.4 27.8 27.8v209.7c0 15.4-12.5 27.8-27.8 27.8z" p-id="1194"></path><path d="M902.2 791.2H692.5c-15.3 0-27.8-12.4-27.8-27.8s12.4-27.8 27.8-27.8h209.7c15.3 0 27.8 12.4 27.8 27.8s-12.5 27.8-27.8 27.8z" p-id="1195"></path></svg>