<?xml version="1.0" standalone="no"?><!DOCTYPE svg PUBLIC "-//W3C//DTD SVG 1.1//EN" "http://www.w3.org/Graphics/SVG/1.1/DTD/svg11.dtd"><svg t="1602692516622" class="icon" viewBox="0 0 1024 1024" version="1.1" xmlns="http://www.w3.org/2000/svg" p-id="1974" xmlns:xlink="http://www.w3.org/1999/xlink" width="200" height="200"><defs><style type="text/css"></style></defs><path d="M399.2576 194.56c64.6656 0 125.5936 24.0128 171.4176 67.4816a223.8976 223.8976 0 0 1 71.3216 163.5328c0 61.7472-25.3952 119.9104-71.3216 163.5328-13.312 12.6464-27.9552 23.6544-43.6224 32.9216l-11.9808 6.656-10.4448 5.12 8.0384 2.9696c24.7808 9.984 47.7696 23.04 68.6592 38.912l12.288 9.9328 11.776 10.5984a276.736 276.736 0 0 1 62.6176 88.2176c15.2576 34.2528 23.04 70.6048 23.1936 108.288 0 21.76-18.2784 39.1168-40.6528 39.1168-22.3232 0-40.6016-17.408-40.6016-39.1168 0-53.1968-21.8112-103.168-61.44-140.8512A215.1936 215.1936 0 0 0 399.36 693.248a215.1936 215.1936 0 0 0-149.0944 58.624 192.9728 192.9728 0 0 0-61.44 140.8512c0 21.76-18.3296 39.1168-40.6528 39.1168-22.3744 0-40.6528-17.408-40.6528-39.1168 0-37.5808 7.68-73.9328 23.04-108.288 14.6944-33.024 35.84-62.7712 62.6176-88.2176 22.9888-21.8112 49.152-39.6288 78.0288-53.0432l14.6432-6.3488 8.0896-3.072-10.4448-5.12a243.3536 243.3536 0 0 1-34.7136-21.8112l-10.7008-8.5504-10.24-9.1648a223.8976 223.8976 0 0 1-71.2704-163.5328c0-61.7472 25.3952-119.9104 71.3216-163.4816A247.2448 247.2448 0 0 1 399.2576 194.56z m-0.0512 78.1824c-89.088 0-161.4848 68.7104-161.4848 152.832 0 84.1216 72.3456 152.832 161.4848 152.832 89.1392 0 161.4336-68.608 161.4336-152.832 0-84.1216-72.3456-152.832-161.4336-152.832z" p-id="1975"></path><path d="M667.8016 245.76c53.4528 0 103.8336 20.7872 141.6704 58.4192a197.5296 197.5296 0 0 1 58.7776 141.056c0 53.248-20.9408 103.424-58.7776 141.056a201.7792 201.7792 0 0 1-30.5152 24.9856l-11.1104 6.8608-10.1376 5.376 3.6864 1.4848c19.6096 8.2432 37.888 18.944 54.5792 32l12.1856 10.1888 9.728 9.1136a238.848 238.848 0 0 1 70.6048 169.3696 35.0208 35.0208 0 0 1-35.1232 34.9696 35.0208 35.0208 0 0 1-35.072-34.9696 167.936 167.936 0 0 0-49.92-119.8592 169.728 169.728 0 0 0-141.2608-48.4352l-2.048-1.6384a293.888 293.888 0 0 0-68.7104-38.912l-8.0384-3.0208 10.4448-5.12 11.9808-6.656a242.6368 242.6368 0 0 0 74.752-69.12l2.3552 0.0512c64.9728 0 117.76-52.7872 117.76-117.76a117.9136 117.9136 0 0 0-107.776-117.3504 232.6016 232.6016 0 0 0-56.0128-66.9184c14.848-3.3792 30.2592-5.1712 45.9776-5.1712z" p-id="1976"></path></svg>